# xmcd
# 
# Track frame offsets:
#     150
#     9554
#     21847
#     33827
#     47282
#     56375
#     68313
#     80778
#     91799
#     103834
#     116145
#     129842
#     143282
#     158266
#     168186
#     179917
# 
# Disc length: 2561
# 
# Revision: 0
# Processed by: cddbd v1.5.2PL0 Copyright (c) Steve Scherf et al.
# Submitted via: fre:ac v1.0.27
# 
DISCID=b609ff10
DTITLE=Gladts Knight and The Pips - Come See About Me
DYEAR=0
DGENRE=Soul
TTITLE0=Every Beat Of My Heart
TTITLE1=Letter Full Of Tears
TTITLE2=Either Way I Lose
TTITLE3=Stop And Get A Hold Of MYself
TTITLE4=If Ever I Should Fall In Love
TTITLE5=Why Don`t You Love Me?
TTITLE6=Come See About Me
TTITLE7=How Do You Say Goodbye?
TTITLE8=Who Knows? (I Just Can`t Trust You)
TTITLE9=Maybe, Maybe, Baby
TTITLE10=Giving Up
TTITLE11=Queen Of Tears
TTITLE12=Guess Who?
TTITLE13=Operator
TTITLE14=Lovers Always Forgive
TTITLE15=(There Will Never Be) Another Love
EXTD=
EXTT0=
EXTT1=
EXTT2=
EXTT3=
EXTT4=
EXTT5=
EXTT6=
EXTT7=
EXTT8=
EXTT9=
EXTT10=
EXTT11=
EXTT12=
EXTT13=
EXTT14=
EXTT15=
PLAYORDER=
